<svg width="43" height="36" viewBox="0 0 43 36" fill="none" xmlns="http://www.w3.org/2000/svg">
<path opacity="0.5" fill-rule="evenodd" clip-rule="evenodd" d="M13.5845 34.9813C14.3525 34.8064 15.1652 34.4952 15.956 34.0029C17.1133 33.2825 18.0306 31.873 18.9325 30.2531C19.1326 29.8937 19.3301 29.5249 19.531 29.1495C19.6453 28.9365 19.7605 28.7335 19.8763 28.518L17.8108 29.7697C17.8582 29.6891 17.8944 29.6085 17.9416 29.5264L17.4587 29.8273C16.702 31.098 15.9098 32.1685 14.9509 32.7655C13.3685 33.7505 11.7567 33.9727 10.5277 33.9507L9.07298 34.8305C9.07299 34.8305 9.27382 34.8087 9.49138 34.7919L9.34668 34.8919C9.34668 34.8919 11.2807 35.506 13.5845 34.9813ZM17.9416 29.5264L19.9789 28.3069C21.2212 26.0042 22.5975 23.6531 24.6494 22.376C26.8721 20.9924 29.1207 21.2937 31.6496 21.3455L33.8265 20.0517C30.0193 20.6048 26.9603 19.3062 23.9179 21.2001C21.1358 22.9319 19.5964 26.6487 17.9416 29.5264ZM33.8265 20.0517C33.8405 20.0497 33.8585 20.0415 33.8726 20.0394L31.7133 21.3529C32.1759 21.3627 32.6445 21.3493 33.1279 21.3291C33.2792 21.3224 33.4332 21.3154 33.5867 21.3042C35.258 21.1862 37.0713 20.7916 39.0977 19.607C40.6879 18.6774 41.5561 17.6571 42.2015 16.6072L41.5355 15.4015L41.0808 15.6703C40.4404 16.6144 39.5354 17.5262 38.0924 18.3697C36.6814 19.1945 35.3801 19.6205 34.1536 19.8538L33.8265 20.0517ZM10.6943 30.3169C11.4623 30.142 12.2667 29.8452 13.0575 29.353C14.2148 28.6326 15.1321 27.223 16.034 25.6032C16.2341 25.2437 16.4286 24.8635 16.6294 24.4881C16.7437 24.2751 16.8589 24.0722 16.9747 23.8566L14.9092 25.1083C14.9566 25.0278 15.0073 24.9554 15.0545 24.8734L14.5686 25.1629C13.8119 26.4335 13.0113 27.5186 12.0523 28.1155C10.47 29.1005 8.85808 29.3227 7.62915 29.3007L6.17134 30.1691C6.17136 30.1691 6.37524 30.1587 6.59278 30.1419L6.44503 30.2305C6.44504 30.2305 8.3903 30.8415 10.6943 30.3169ZM15.0545 24.8734L17.0917 23.6538C18.3341 21.3512 19.699 19.0032 21.7508 17.7261C23.9735 16.3425 26.2221 16.6437 28.751 16.6955L30.9361 15.3873C27.129 15.9404 24.0585 14.6449 21.016 16.5387C18.234 18.2705 16.7093 21.9956 15.0545 24.8734ZM30.9361 15.3873C30.9502 15.3853 30.9599 15.3914 30.9739 15.3894L28.8116 16.6915C29.2742 16.7013 29.7573 16.6963 30.2408 16.676C30.392 16.6693 30.546 16.6623 30.6996 16.6511C32.3708 16.533 34.1697 16.1301 36.196 14.9456C37.9187 13.9386 38.8279 12.8318 39.4763 11.6901L38.8164 10.5073C38.7832 10.5655 38.7768 10.6284 38.7419 10.6865L38.1935 11.0171C37.5531 11.9613 36.6336 12.8647 35.1907 13.7082C33.7797 14.533 32.4815 14.9705 31.255 15.2038L30.9361 15.3873ZM7.79515 25.667C8.56314 25.4921 9.36757 25.1953 10.1584 24.703C11.3156 23.9827 12.2329 22.5731 13.1348 20.9532C13.3349 20.5938 13.5408 20.2105 13.7417 19.8351C13.856 19.6221 13.9712 19.4191 14.087 19.2036L12.01 20.4584C12.0574 20.3778 12.1081 20.3055 12.1553 20.2235L11.6694 20.5129C10.9127 21.7836 10.1235 22.8656 9.16456 23.4625C7.58222 24.4475 5.95901 24.6727 4.73007 24.6508L3.28372 25.516C3.28375 25.5161 3.4762 25.5087 3.69376 25.4919L3.546 25.5805C3.546 25.5805 5.49116 26.1916 7.79515 25.667ZM12.1553 20.2235L14.1926 19.0038C15.4349 16.7012 16.8112 14.3502 18.8631 13.073C21.0858 11.6894 23.3229 11.9938 25.8519 12.0456L28.037 10.7374C24.2298 11.2904 21.1708 9.99179 18.1284 11.8857C15.3463 13.6175 13.8101 17.3456 12.1553 20.2235ZM28.037 10.7374C28.051 10.7353 28.0691 10.727 28.0831 10.7249L25.9124 12.0415C26.375 12.0514 26.8581 12.0463 27.3416 12.0261C27.4928 12.0193 27.6438 12.0009 27.7973 11.9897C29.4686 11.8717 31.2705 11.4801 33.2968 10.2956C35.1429 9.21648 36.1076 8.02633 36.7568 6.79614L36.0639 5.53629C35.9798 5.69877 35.9365 5.86427 35.8397 6.02511L35.2913 6.35582C34.6509 7.29993 33.746 8.21173 32.3029 9.0553C30.892 9.88014 29.5907 10.3062 28.3642 10.5394L28.037 10.7374ZM4.89603 21.0171C5.66402 20.8423 6.47673 20.5309 7.26751 20.0387C8.42476 19.3183 9.33076 17.9118 10.2325 16.292C10.4326 15.9325 10.6416 15.5606 10.8425 15.1853C10.9567 14.9722 11.072 14.7693 11.1877 14.5538L9.11075 15.8086C9.15814 15.728 9.20583 15.6442 9.25298 15.5622L8.77012 15.8631C8.01343 17.1338 7.22122 18.2043 6.26228 18.8013C4.67995 19.7863 3.06807 20.0085 1.83925 19.9865L0.384503 20.8662C0.38451 20.8662 0.585355 20.8445 0.802895 20.8277L0.658205 20.9277C0.658205 20.9277 2.59213 21.5417 4.89603 21.0171ZM9.25298 15.5622L11.2904 14.3426C12.5327 12.04 13.909 9.68894 15.9609 8.41181C18.1836 7.02825 20.4207 7.33256 22.9497 7.38441L25.1379 6.0876C21.3307 6.6407 18.2717 5.34206 15.2293 7.23594C12.4472 8.96773 10.9078 12.6844 9.25298 15.5622ZM25.1379 6.0876C25.1519 6.08551 25.17 6.07725 25.1841 6.07519L23.0248 7.3887C23.4874 7.39852 23.956 7.38509 24.4394 7.36487C24.5907 7.35818 24.7446 7.3511 24.8982 7.33997C26.5695 7.2219 28.3828 6.82737 30.4091 5.64282C32.3188 4.52646 33.2965 3.28857 33.9444 2.01279C33.9717 1.9595 33.9999 1.90938 34.025 1.85645L33.3002 0.568464C33.1732 0.836719 33.0996 1.11107 32.9406 1.37529L32.3923 1.70598C31.7519 2.65012 30.8469 3.56191 29.4039 4.40549C27.9929 5.23029 26.6916 5.65635 25.4651 5.88961L25.1379 6.0876Z" fill="black"/>
</svg>
