<svg width="16" height="14" viewBox="0 0 16 14" fill="none" xmlns="http://www.w3.org/2000/svg">
<path d="M15.6652 7.66728C16.1116 7.22083 16.1116 6.49576 15.6652 6.04933L9.95055 0.334725C9.5041 -0.111736 8.77906 -0.111736 8.33261 0.334725C7.88616 0.781174 7.88616 1.50622 8.33261 1.95267L12.1007 5.71716L1.14292 5.71716C0.510742 5.71716 -1.08894e-06 6.2279 -1.19948e-06 6.86008C-1.31001e-06 7.49226 0.510741 8.00301 1.14292 8.00301L12.0971 8.00301L8.33618 11.7675C7.88973 12.2139 7.88973 12.939 8.33618 13.3854C8.78263 13.8319 9.50767 13.8319 9.95412 13.3854L15.6687 7.67084L15.6652 7.66728Z" fill="#CC0913"/>
</svg>
