<svg width="12" height="11" viewBox="0 0 12 11" fill="none" xmlns="http://www.w3.org/2000/svg">
<path d="M11.7489 5.75055C12.0837 5.41571 12.0837 4.87192 11.7489 4.53708L7.46292 0.251141C7.12808 -0.0837135 6.5843 -0.0837135 6.24946 0.251141C5.91462 0.585975 5.91462 1.12976 6.24946 1.4646L9.07551 4.28797L0.857191 4.28797C0.383057 4.28797 0 4.67102 0 5.14516C0 5.61929 0.383057 6.00235 0.857191 6.00235L9.07283 6.00235L6.25213 8.82572C5.9173 9.16055 5.9173 9.70434 6.25213 10.0392C6.58697 10.374 7.13075 10.374 7.46559 10.0392L11.7516 5.75323L11.7489 5.75055Z" fill="#707070"/>
</svg>
