<svg width="16" height="14" viewBox="0 0 16 14" fill="none" xmlns="http://www.w3.org/2000/svg">
<path d="M15.6652 7.66734C16.1116 7.22089 16.1116 6.49582 15.6652 6.04939L9.95055 0.334786C9.5041 -0.111675 8.77906 -0.111675 8.33261 0.334786C7.88616 0.781235 7.88616 1.50628 8.33261 1.95273L12.1007 5.71723L1.14292 5.71722C0.510742 5.71722 -1.08894e-06 6.22797 -1.19948e-06 6.86014C-1.31001e-06 7.49232 0.510741 8.00307 1.14292 8.00307L12.0971 8.00307L8.33618 11.7676C7.88973 12.214 7.88973 12.939 8.33618 13.3855C8.78263 13.832 9.50767 13.832 9.95412 13.3855L15.6687 7.6709L15.6652 7.66734Z" fill="#CC0913"/>
</svg>
