<svg width="12" height="11" viewBox="0 0 12 11" fill="none" xmlns="http://www.w3.org/2000/svg">
<path d="M0.251127 5.24945C-0.0837083 5.58429 -0.0837083 6.12808 0.251127 6.46292L4.53708 10.7489C4.87192 11.0837 5.4157 11.0837 5.75054 10.7489C6.08538 10.414 6.08538 9.87024 5.75054 9.5354L2.92449 6.71203L11.1428 6.71203C11.6169 6.71203 12 6.32898 12 5.85484C12 5.38071 11.6169 4.99765 11.1428 4.99765L2.92717 4.99765L5.74787 2.17427C6.0827 1.83945 6.0827 1.29566 5.74787 0.960835C5.41303 0.625981 4.86925 0.625981 4.53441 0.960835L0.248447 5.24677L0.251127 5.24945Z" fill="#505050"/>
</svg>
