<svg width="16" height="14" viewBox="0 0 16 14" fill="none" xmlns="http://www.w3.org/2000/svg">
<path d="M15.6652 7.6674C16.1116 7.22095 16.1116 6.49588 15.6652 6.04945L9.95055 0.334847C9.5041 -0.111614 8.77906 -0.111614 8.33261 0.334847C7.88616 0.781296 7.88616 1.50634 8.33261 1.95279L12.1007 5.71729L1.14292 5.71728C0.510742 5.71728 -1.08894e-06 6.22803 -1.19948e-06 6.8602C-1.31001e-06 7.49238 0.510741 8.00313 1.14292 8.00313L12.0971 8.00313L8.33618 11.7676C7.88973 12.2141 7.88973 12.9391 8.33618 13.3856C8.78263 13.832 9.50767 13.832 9.95412 13.3856L15.6687 7.67096L15.6652 7.6674Z" fill="#CC0913"/>
</svg>
