<svg width="24" height="18" viewBox="0 0 24 18" fill="none" xmlns="http://www.w3.org/2000/svg">
<path d="M23.2678 3.74695L10.3674 16.6454C10.2671 16.7457 10.1588 16.8339 10.0465 16.9081C9.70551 17.1348 9.30839 17.2471 8.91528 17.2471C8.3898 17.2471 7.86431 17.0465 7.46318 16.6454L0.728164 9.91236C-0.0741014 9.1101 -0.0741014 7.80842 0.728164 7.00616C1.53043 6.20389 2.83411 6.20389 3.63638 7.00616L8.91929 12.2991L20.3596 0.84877C21.1619 0.046505 22.4655 0.046505 23.2678 0.84877C23.6689 1.25191 23.8735 1.76937 23.8735 2.29886C23.8735 2.82635 23.6689 3.34582 23.2678 3.74695Z" fill="white"/>
</svg>
