<svg width="16" height="14" viewBox="0 0 16 14" fill="none" xmlns="http://www.w3.org/2000/svg">
<path d="M14.7664 3.33897L7.05241 13.2244C6.99245 13.3013 6.92768 13.3689 6.86052 13.4258C6.65664 13.5995 6.41917 13.6855 6.18411 13.6855C5.86989 13.6855 5.55567 13.5318 5.3158 13.2244L1.28851 8.06418C0.808779 7.44932 0.808779 6.45171 1.28851 5.83685C1.76823 5.22198 2.54779 5.22198 3.02751 5.83685L6.18651 9.89339L13.0274 1.11779C13.5071 0.502926 14.2867 0.502926 14.7664 1.11779C15.0063 1.42675 15.1286 1.82334 15.1286 2.22915C15.1286 2.63342 15.0063 3.03154 14.7664 3.33897Z" fill="white"/>
</svg>
