<svg width="10" height="7" viewBox="0 0 10 7" fill="none" xmlns="http://www.w3.org/2000/svg">
<path d="M8.93164 2.12988L4.35059 6.71094C4.31445 6.74609 4.27637 6.77734 4.23633 6.80371C4.11523 6.88477 3.97461 6.92383 3.83496 6.92383C3.64844 6.92383 3.46094 6.85254 3.31934 6.71094L0.926758 4.31934C0.641602 4.03418 0.641602 3.57227 0.926758 3.28711C1.21191 3.00195 1.6748 3.00195 1.95996 3.28711L3.83594 5.16699L7.89941 1.10059C8.18457 0.81543 8.64746 0.81543 8.93164 1.10059C9.07422 1.24316 9.14746 1.42676 9.14746 1.61523C9.14746 1.80273 9.07422 1.9873 8.93164 2.12988Z" fill="#1A1A1A"/>
</svg>
