<svg width="10" height="9" viewBox="0 0 10 9" fill="none" xmlns="http://www.w3.org/2000/svg">
<path d="M9.74493 1.85288L4.3125 8.68145C4.27027 8.73454 4.22466 8.78126 4.17737 8.82055C4.03378 8.94054 3.86655 9 3.70101 9C3.47973 9 3.25845 8.89382 3.08953 8.68145L0.253378 5.11692C-0.0844594 4.69219 -0.0844594 4.00307 0.253378 3.57834C0.591216 3.15361 1.1402 3.15361 1.47804 3.57834L3.7027 6.38049L8.52027 0.318546C8.85811 -0.106182 9.40709 -0.106182 9.74493 0.318546C9.91385 0.531973 10 0.805923 10 1.08624C10 1.3655 9.91385 1.64051 9.74493 1.85288Z" fill="white"/>
</svg>
