<svg width="21" height="21" viewBox="0 0 21 21" fill="none" xmlns="http://www.w3.org/2000/svg">
<path d="M14.8883 0.661653L12.6445 2.90946L17.688 7.95294L19.9318 5.70915C20.814 4.82695 20.814 3.40092 19.9318 2.51871L18.0787 0.661653C17.1965 -0.220551 15.7705 -0.220551 14.8883 0.661653ZM11.6495 3.73527L11.2789 3.84806L5.47407 5.5883C4.67243 5.83001 4.03596 6.44231 3.77009 7.23992L0.200987 17.8828C0.0479108 18.338 0.160704 18.8455 0.495056 19.188L6.68257 13.0045C6.56172 12.7507 6.49324 12.4687 6.49324 12.1706C6.49324 11.1031 7.35933 10.237 8.42684 10.237C9.49435 10.237 10.3604 11.1031 10.3604 12.1706C10.3604 13.2381 9.49435 14.1042 8.42684 14.1042C8.12875 14.1042 7.84676 14.0357 7.59298 13.9149L1.40546 20.1024C1.7519 20.4367 2.25544 20.5536 2.71064 20.3965L13.3575 16.8274C14.1511 16.5615 14.7674 15.925 15.0091 15.1234L16.7494 9.31854L16.8622 8.94793L11.6495 3.73527Z" fill="#CC0913"/>
</svg>
