<svg width="21" height="21" viewBox="0 0 21 21" fill="none" xmlns="http://www.w3.org/2000/svg">
<path d="M8.74024 3.83613H5.88708H4.44052H3.96899V4.18777V5.75419V7.36856V10.925L0.140805 8.09183C0.204741 7.36856 0.576371 6.69724 1.16778 6.26168L2.0509 5.60634V3.83613C2.0509 2.7772 2.91005 1.91806 3.96899 1.91806H7.02994L9.02396 0.443552C9.41157 0.155843 9.8791 0 10.3626 0C10.8461 0 11.3137 0.155843 11.7013 0.439556L13.6953 1.91806H16.7563C17.8152 1.91806 18.6743 2.7772 18.6743 3.83613V5.60634L19.5575 6.26168C20.1489 6.69724 20.5205 7.36856 20.5844 8.09183L16.7563 10.925V7.36856V5.75419V4.18777V3.83613H16.2847H14.8382H11.985H8.74024ZM0.132812 17.9019V9.67423L8.82815 16.1157C9.27171 16.4434 9.81117 16.6232 10.3626 16.6232C10.9141 16.6232 11.4535 16.4474 11.8971 16.1157L20.5924 9.67423V17.9019C20.5924 19.3125 19.4456 20.4593 18.035 20.4593H2.69027C1.27967 20.4593 0.132812 19.3125 0.132812 17.9019ZM7.16581 6.39355H13.5594C13.9111 6.39355 14.1988 6.68125 14.1988 7.0329C14.1988 7.38455 13.9111 7.67225 13.5594 7.67225H7.16581C6.81416 7.67225 6.52644 7.38455 6.52644 7.0329C6.52644 6.68125 6.81416 6.39355 7.16581 6.39355ZM7.16581 8.95096H13.5594C13.9111 8.95096 14.1988 9.23867 14.1988 9.59032C14.1988 9.94196 13.9111 10.2297 13.5594 10.2297H7.16581C6.81416 10.2297 6.52644 9.94196 6.52644 9.59032C6.52644 9.23867 6.81416 8.95096 7.16581 8.95096Z" fill="#CC0913"/>
</svg>
