<svg width="18" height="19" viewBox="0 0 18 19" fill="none" xmlns="http://www.w3.org/2000/svg">
<path d="M12.9812 1.02059L11.0072 2.99817L15.4443 7.43532L17.4184 5.46129C18.1945 4.68514 18.1945 3.43054 17.4184 2.6544L15.7881 1.02059C15.012 0.24444 13.7574 0.24444 12.9812 1.02059ZM10.1318 3.7247L9.80575 3.82393L4.69877 5.35496C3.99351 5.56761 3.43355 6.1063 3.19964 6.80803L0.0596082 16.1714C-0.0750658 16.5719 0.0241678 17.0184 0.318324 17.3197L5.76199 11.8796C5.65567 11.6563 5.59542 11.4082 5.59542 11.1459C5.59542 10.2068 6.35739 9.4448 7.29656 9.4448C8.23574 9.4448 8.99771 10.2068 8.99771 11.1459C8.99771 12.0851 8.23574 12.8471 7.29656 12.8471C7.0343 12.8471 6.78622 12.7868 6.56294 12.6805L1.11928 18.1242C1.42407 18.4183 1.86708 18.5211 2.26755 18.3829L11.6345 15.2429C12.3327 15.009 12.8749 14.449 13.0875 13.7437L14.6186 8.63676L14.7178 8.3107L10.1318 3.7247Z" fill="#CC0913"/>
</svg>
