<svg width="38" height="38" viewBox="0 0 38 38" fill="none" xmlns="http://www.w3.org/2000/svg">
<path d="M27.0359 1.95643L23.0506 5.94881L32.0084 14.9066L35.9937 10.9214C37.5606 9.35449 37.5606 6.82169 35.9937 5.25479L32.7025 1.95643C31.1356 0.389525 28.6028 0.389525 27.0359 1.95643ZM21.2834 7.41554L20.6251 7.61588L10.3151 10.7068C8.89126 11.136 7.7608 12.2236 7.28859 13.6402L0.949431 32.5432C0.677548 33.3517 0.877883 34.2532 1.47173 34.8614L12.4615 23.8788C12.2469 23.428 12.1252 22.9272 12.1252 22.3977C12.1252 20.5017 13.6635 18.9634 15.5595 18.9634C17.4556 18.9634 18.9938 20.5017 18.9938 22.3977C18.9938 24.2937 17.4556 25.832 15.5595 25.832C15.0301 25.832 14.5292 25.7104 14.0785 25.4957L3.08872 36.4855C3.70403 37.0794 4.59838 37.2869 5.40687 37.0078L24.317 30.6687C25.7265 30.1964 26.8212 29.066 27.2505 27.6422L30.3414 17.3321L30.5417 16.6739L21.2834 7.41554Z" fill="white"/>
</svg>
