<svg width="22" height="16" viewBox="0 0 22 16" fill="none" xmlns="http://www.w3.org/2000/svg">
<path d="M2.475 2.13884C2.475 1.07571 3.33685 0.213867 4.4 0.213867C5.46315 0.213867 6.325 1.07571 6.325 2.13884C6.325 3.20198 5.46315 4.06382 4.4 4.06382C3.33685 4.06382 2.475 3.20198 2.475 2.13884ZM2.2 7.55971C1.85625 7.9447 1.65 8.45689 1.65 9.01375C1.65 9.57062 1.85625 10.0828 2.2 10.4678V7.55971ZM7.16375 5.86504C6.14281 6.7691 5.5 8.09251 5.5 9.56375C5.5 10.7428 5.9125 11.8256 6.6 12.6746V13.4137C6.6 14.0221 6.10844 14.5137 5.5 14.5137H3.3C2.69156 14.5137 2.2 14.0221 2.2 13.4137V12.4925C0.900625 11.8737 0 10.5503 0 9.01375C0 6.88596 1.72219 5.1638 3.85 5.1638H4.95C5.775 5.1638 6.53813 5.42162 7.16375 5.86161V5.86504ZM15.4 13.4137V12.6746C16.0875 11.8256 16.5 10.7428 16.5 9.56375C16.5 8.09251 15.8572 6.7691 14.8363 5.86161C15.4619 5.42162 16.225 5.1638 17.05 5.1638H18.15C20.2778 5.1638 22 6.88596 22 9.01375C22 10.5503 21.0994 11.8737 19.8 12.4925V13.4137C19.8 14.0221 19.3084 14.5137 18.7 14.5137H16.5C15.8916 14.5137 15.4 14.0221 15.4 13.4137ZM15.675 2.13884C15.675 1.07571 16.5369 0.213867 17.6 0.213867C18.6632 0.213867 19.525 1.07571 19.525 2.13884C19.525 3.20198 18.6631 4.06382 17.6 4.06382C16.5369 4.06382 15.675 3.20198 15.675 2.13884ZM19.8 7.55971V10.4712C20.1438 10.0828 20.35 9.57406 20.35 9.01719C20.35 8.46032 20.1438 7.94814 19.8 7.56314V7.55971ZM11 0.213867C12.215 0.213867 13.2 1.19883 13.2 2.41384C13.2 3.62885 12.215 4.61381 11 4.61381C9.78497 4.61381 8.8 3.62885 8.8 2.41384C8.8 1.19883 9.78497 0.213867 11 0.213867ZM8.25 9.56375C8.25 10.1206 8.45625 10.6294 8.8 11.0178V8.1097C8.45625 8.49813 8.25 9.00688 8.25 9.56375ZM13.2 8.1097V11.0212C13.5437 10.6328 13.75 10.1241 13.75 9.56718C13.75 9.01031 13.5437 8.49813 13.2 8.11314V8.1097ZM15.4 9.56375C15.4 11.1003 14.4994 12.4237 13.2 13.0425V14.5137C13.2 15.1221 12.7084 15.6137 12.1 15.6137H9.9C9.29156 15.6137 8.8 15.1221 8.8 14.5137V13.0425C7.50063 12.4237 6.6 11.1003 6.6 9.56375C6.6 7.43596 8.32219 5.71379 10.45 5.71379H11.55C13.6778 5.71379 15.4 7.43596 15.4 9.56375Z" fill="#CC0913"/>
</svg>
