<svg width="23" height="21" viewBox="0 0 23 21" fill="none" xmlns="http://www.w3.org/2000/svg">
<path d="M10.1298 1.3852C10.3705 0.919495 10.189 0.347233 9.72721 0.106488C9.26544 -0.134257 8.68923 0.0472887 8.44848 0.509045L4.77412 7.57747H1.39575C0.697189 7.57747 0.132812 8.14183 0.132812 8.84039C0.132812 9.53894 0.697189 10.1033 1.39575 10.1033L3.44408 18.2926C3.7243 19.4174 4.73465 20.2067 5.89497 20.2067H17.1036C18.2639 20.2067 19.2742 19.4174 19.5545 18.2926L21.6028 10.1033C22.3013 10.1033 22.8657 9.53894 22.8657 8.84039C22.8657 8.14183 22.3013 7.57747 21.6028 7.57747H18.2244L14.5501 0.509045C14.3093 0.0472888 13.737 -0.134256 13.2713 0.106488C12.8056 0.347233 12.628 0.919495 12.8688 1.3852L16.0893 7.57747H6.90927L10.1298 1.3852ZM7.71045 11.9977V15.7865C7.71045 16.1338 7.42629 16.4179 7.07898 16.4179C6.73167 16.4179 6.44751 16.1338 6.44751 15.7865V11.9977C6.44751 11.6504 6.73167 11.3662 7.07898 11.3662C7.42629 11.3662 7.71045 11.6504 7.71045 11.9977ZM11.4993 11.3662C11.8466 11.3662 12.1307 11.6504 12.1307 11.9977V15.7865C12.1307 16.1338 11.8466 16.4179 11.4993 16.4179C11.152 16.4179 10.8678 16.1338 10.8678 15.7865V11.9977C10.8678 11.6504 11.152 11.3662 11.4993 11.3662ZM16.551 11.9977V15.7865C16.551 16.1338 16.2669 16.4179 15.9196 16.4179C15.5722 16.4179 15.2881 16.1338 15.2881 15.7865V11.9977C15.2881 11.6504 15.5722 11.3662 15.9196 11.3662C16.2669 11.3662 16.551 11.6504 16.551 11.9977Z" fill="#CC0913"/>
</svg>
