<svg width="30" height="30" viewBox="0 0 30 30" fill="none" xmlns="http://www.w3.org/2000/svg">
<path d="M23.3789 22.5117C22.084 20.2617 19.6523 18.75 16.875 18.75H13.125C10.3477 18.75 7.91601 20.2617 6.62109 22.5117C8.68359 24.8086 11.6719 26.25 15 26.25C18.3281 26.25 21.3164 24.8027 23.3789 22.5117ZM0 15C0 6.71573 6.71573 -1.78814e-06 15 0C23.2843 0 30 6.71573 30 15C30 23.2843 23.2843 30 15 30C6.71573 30 8.9407e-07 23.2843 0 15ZM15 15.9375C17.3299 15.9375 19.2188 14.0487 19.2188 11.7188C19.2188 9.3888 17.3299 7.5 15 7.5C12.67 7.5 10.7813 9.3888 10.7813 11.7188C10.7813 14.0487 12.67 15.9375 15 15.9375Z" fill="#505050"/>
</svg>
