<svg width="28" height="24" viewBox="0 0 28 24" fill="none" xmlns="http://www.w3.org/2000/svg">
<path d="M12.3132 1.64523C12.6097 1.09211 12.3861 0.412417 11.8174 0.126479C11.2486 -0.15946 10.5389 0.0561659 10.2424 0.604605L5.71667 8.99995H1.55556C0.695139 8.99995 0 9.67026 0 10.5C0 11.3296 0.695139 12 1.55556 12L4.07847 21.7266C4.42361 23.0625 5.66806 24 7.09722 24H20.9028C22.3319 24 23.5764 23.0625 23.9215 21.7266L26.4444 12C27.3049 12 28 11.3296 28 10.5C28 9.67026 27.3049 8.99995 26.4444 8.99995H22.2833L17.7576 0.604606C17.4611 0.0561661 16.7563 -0.15946 16.1826 0.126479C15.609 0.412417 15.3903 1.09211 15.6868 1.64523L19.6535 8.99995H8.34653L12.3132 1.64523ZM9.33333 14.25V18.75C9.33333 19.1625 8.98333 19.5 8.55556 19.5C8.12778 19.5 7.77778 19.1625 7.77778 18.75V14.25C7.77778 13.8375 8.12778 13.5 8.55556 13.5C8.98333 13.5 9.33333 13.8375 9.33333 14.25ZM14 13.5C14.4278 13.5 14.7778 13.8375 14.7778 14.25V18.75C14.7778 19.1625 14.4278 19.5 14 19.5C13.5722 19.5 13.2222 19.1625 13.2222 18.75V14.25C13.2222 13.8375 13.5722 13.5 14 13.5ZM20.2222 14.25V18.75C20.2222 19.1625 19.8722 19.5 19.4444 19.5C19.0167 19.5 18.6667 19.1625 18.6667 18.75V14.25C18.6667 13.8375 19.0167 13.5 19.4444 13.5C19.8722 13.5 20.2222 13.8375 20.2222 14.25Z" fill="#505050"/>
</svg>
