<svg width="16" height="16" viewBox="0 0 16 16" fill="none" xmlns="http://www.w3.org/2000/svg">
<path d="M7.26562 0.161735C7.73125 -0.0539115 8.26875 -0.0539115 8.73438 0.161735L15.5656 3.31829C15.8312 3.44018 16 3.70583 16 3.99961C16 4.29339 15.8312 4.55904 15.5656 4.68093L8.73438 7.83749C8.26875 8.05313 7.73125 8.05313 7.26562 7.83749L0.434375 4.68093C0.16875 4.55591 0 4.29026 0 3.99961C0 3.70896 0.16875 3.44018 0.434375 3.31829L7.26562 0.161735ZM13.9031 6.54986L15.5656 7.31868C15.8312 7.44057 16 7.70622 16 8C16 8.29378 15.8312 8.55943 15.5656 8.68132L8.73438 11.8379C8.26875 12.0535 7.73125 12.0535 7.26562 11.8379L0.434375 8.68132C0.16875 8.5563 0 8.29065 0 8C0 7.70935 0.16875 7.44057 0.434375 7.31868L2.09687 6.54986L6.84688 8.74382C7.57812 9.08136 8.42188 9.08136 9.15312 8.74382L13.9031 6.54986ZM9.15312 12.7442L13.9031 10.5503L15.5656 11.3191C15.8312 11.441 16 11.7066 16 12.0004C16 12.2942 15.8312 12.5598 15.5656 12.6817L8.73438 15.8383C8.26875 16.0539 7.73125 16.0539 7.26562 15.8383L0.434375 12.6817C0.16875 12.5567 0 12.291 0 12.0004C0 11.7097 0.16875 11.441 0.434375 11.3191L2.09687 10.5503L6.84688 12.7442C7.57812 13.0817 8.42188 13.0817 9.15312 12.7442Z" fill="#707070"/>
</svg>
