<svg width="20" height="17" viewBox="0 0 20 17" fill="none" xmlns="http://www.w3.org/2000/svg">
<path d="M17.5 1.82143C17.8438 1.82143 18.125 2.09464 18.125 2.42857V14.5638L17.9297 14.3172L12.6172 7.63862C12.4414 7.41473 12.1641 7.28571 11.875 7.28571C11.5859 7.28571 11.3125 7.41473 11.1328 7.63862L7.89062 11.7141L6.69922 10.0938C6.52344 9.85469 6.24219 9.71429 5.9375 9.71429C5.63281 9.71429 5.35156 9.85469 5.17578 10.0975L2.05078 14.3475L1.875 14.5828V14.5714V2.42857C1.875 2.09464 2.15625 1.82143 2.5 1.82143H17.5ZM2.5 0C1.12109 0 0 1.08906 0 2.42857V14.5714C0 15.9109 1.12109 17 2.5 17H17.5C18.8789 17 20 15.9109 20 14.5714V2.42857C20 1.08906 18.8789 0 17.5 0H2.5ZM5.625 7.28571C5.87123 7.28571 6.11505 7.2386 6.34253 7.14707C6.57002 7.05553 6.77672 6.92137 6.95083 6.75223C7.12494 6.5831 7.26305 6.3823 7.35727 6.16132C7.4515 5.94033 7.5 5.70348 7.5 5.46429C7.5 5.22509 7.4515 4.98824 7.35727 4.76726C7.26305 4.54627 7.12494 4.34548 6.95083 4.17634C6.77672 4.00721 6.57002 3.87304 6.34253 3.78151C6.11505 3.68997 5.87123 3.64286 5.625 3.64286C5.37877 3.64286 5.13495 3.68997 4.90747 3.78151C4.67998 3.87304 4.47328 4.00721 4.29917 4.17634C4.12506 4.34548 3.98695 4.54627 3.89273 4.76726C3.7985 4.98824 3.75 5.22509 3.75 5.46429C3.75 5.70348 3.7985 5.94033 3.89273 6.16132C3.98695 6.3823 4.12506 6.5831 4.29917 6.75223C4.47328 6.92137 4.67998 7.05553 4.90747 7.14707C5.13495 7.2386 5.37877 7.28571 5.625 7.28571Z" fill="#707070"/>
</svg>
