<svg width="19" height="16" viewBox="0 0 19 16" fill="none" xmlns="http://www.w3.org/2000/svg">
<path d="M8.3793 15.5646L8.28652 15.4804L1.78496 9.52724C0.645703 8.48442 0 7.02082 0 5.4877V5.36695C0 2.79102 1.85547 0.580988 4.42344 0.0980001C5.88555 -0.180084 7.38105 0.152885 8.57227 0.979818C8.90625 1.21399 9.21797 1.48476 9.5 1.79577C9.65586 1.62014 9.82285 1.45915 10.001 1.30913C10.1383 1.19204 10.2793 1.08227 10.4277 0.979818C11.6189 0.152885 13.1145 -0.180084 14.5766 0.0943412C17.1445 0.577329 19 2.79102 19 5.36695V5.4877C19 7.02082 18.3543 8.48442 17.215 9.52724L10.7135 15.4804L10.6207 15.5646C10.3164 15.8427 9.91562 16 9.5 16C9.08438 16 8.68359 15.8463 8.3793 15.5646ZM8.87285 3.7387C8.85801 3.72772 8.84688 3.71309 8.83574 3.69845L8.1752 2.96665L8.17148 2.96299C7.31426 2.01531 6.01914 1.58355 4.75742 1.82139C3.02813 2.14704 1.78125 3.63259 1.78125 5.36695V5.4877C1.78125 6.53052 2.22285 7.52942 2.99844 8.23927L9.5 14.1925L16.0016 8.23927C16.7771 7.52942 17.2188 6.53052 17.2188 5.4877V5.36695C17.2188 3.63625 15.9719 2.14704 14.2463 1.82139C12.9846 1.58355 11.6857 2.01897 10.8322 2.96299C10.8322 2.96299 10.8322 2.96299 10.8285 2.96665C10.8248 2.97031 10.8285 2.96665 10.8248 2.97031L10.1643 3.70211C10.1531 3.71675 10.1383 3.72773 10.1271 3.74236C9.96016 3.90702 9.73379 3.99849 9.5 3.99849C9.26621 3.99849 9.03984 3.90702 8.87285 3.74236V3.7387Z" fill="#707070"/>
</svg>
