<svg width="16" height="18" viewBox="0 0 16 18" fill="none" xmlns="http://www.w3.org/2000/svg">
<path d="M6.08929 1.81406L5.41071 2.8125H10.5893L9.91072 1.81406C9.85714 1.73672 9.76786 1.6875 9.67143 1.6875H6.325C6.22857 1.6875 6.13929 1.7332 6.08571 1.81406H6.08929ZM11.3393 0.878906L12.65 2.8125H13.1429H14.8571H15.1429C15.6179 2.8125 16 3.18867 16 3.65625C16 4.12383 15.6179 4.5 15.1429 4.5H14.8571V15.1875C14.8571 16.7414 13.5786 18 12 18H4C2.42143 18 1.14286 16.7414 1.14286 15.1875V4.5H0.857143C0.382143 4.5 0 4.12383 0 3.65625C0 3.18867 0.382143 2.8125 0.857143 2.8125H1.14286H2.85714H3.35L4.66071 0.875391C5.03214 0.330469 5.65714 0 6.325 0H9.67143C10.3393 0 10.9643 0.330469 11.3357 0.875391L11.3393 0.878906ZM2.85714 4.5V15.1875C2.85714 15.8098 3.36786 16.3125 4 16.3125H12C12.6321 16.3125 13.1429 15.8098 13.1429 15.1875V4.5H2.85714ZM5.71429 6.75V14.0625C5.71429 14.3719 5.45714 14.625 5.14286 14.625C4.82857 14.625 4.57143 14.3719 4.57143 14.0625V6.75C4.57143 6.44063 4.82857 6.1875 5.14286 6.1875C5.45714 6.1875 5.71429 6.44063 5.71429 6.75ZM8.57143 6.75V14.0625C8.57143 14.3719 8.31429 14.625 8 14.625C7.68571 14.625 7.42857 14.3719 7.42857 14.0625V6.75C7.42857 6.44063 7.68571 6.1875 8 6.1875C8.31429 6.1875 8.57143 6.44063 8.57143 6.75ZM11.4286 6.75V14.0625C11.4286 14.3719 11.1714 14.625 10.8571 14.625C10.5429 14.625 10.2857 14.3719 10.2857 14.0625V6.75C10.2857 6.44063 10.5429 6.1875 10.8571 6.1875C11.1714 6.1875 11.4286 6.44063 11.4286 6.75Z" fill="#707070"/>
</svg>
