<svg width="14" height="19" viewBox="0 0 14 19" fill="none" xmlns="http://www.w3.org/2000/svg">
<path d="M2.33333 0C1.04635 0 0 1.06504 0 2.375V16.625C0 17.935 1.04635 19 2.33333 19H11.6667C12.9536 19 14 17.935 14 16.625V5.9375H9.33333C8.68802 5.9375 8.16667 5.40684 8.16667 4.75V0H2.33333ZM9.33333 0V4.75H14L9.33333 0ZM4.08333 9.5H9.91667C10.2375 9.5 10.5 9.76719 10.5 10.0938C10.5 10.4203 10.2375 10.6875 9.91667 10.6875H4.08333C3.7625 10.6875 3.5 10.4203 3.5 10.0938C3.5 9.76719 3.7625 9.5 4.08333 9.5ZM4.08333 11.875H9.91667C10.2375 11.875 10.5 12.1422 10.5 12.4688C10.5 12.7953 10.2375 13.0625 9.91667 13.0625H4.08333C3.7625 13.0625 3.5 12.7953 3.5 12.4688C3.5 12.1422 3.7625 11.875 4.08333 11.875ZM4.08333 14.25H9.91667C10.2375 14.25 10.5 14.5172 10.5 14.8438C10.5 15.1703 10.2375 15.4375 9.91667 15.4375H4.08333C3.7625 15.4375 3.5 15.1703 3.5 14.8438C3.5 14.5172 3.7625 14.25 4.08333 14.25Z" fill="#707070"/>
</svg>
